<svg id="visual" viewBox="0 0 1900 1000" width="1900" height="1000" xmlns="http://www.w3.org/2000/svg" xmlns:xlink="http://www.w3.org/1999/xlink" version="1.1"><rect x="0" y="0" width="1900" height="1000" fill="#F6EBE1"></rect><path d="M0 186L63.3 176.8C126.7 167.7 253.3 149.3 380 164.5C506.7 179.7 633.3 228.3 760 263C886.7 297.7 1013.3 318.3 1140 322.2C1266.7 326 1393.3 313 1520 304.3C1646.7 295.7 1773.3 291.3 1836.7 289.2L1900 287L1900 0L1836.7 0C1773.3 0 1646.7 0 1520 0C1393.3 0 1266.7 0 1140 0C1013.3 0 886.7 0 760 0C633.3 0 506.7 0 380 0C253.3 0 126.7 0 63.3 0L0 0Z" fill="#FFFCF7" stroke-linecap="round" stroke-linejoin="miter"></path></svg>